<svg width="995" height="738" viewBox="0 0 995 738" fill="none" xmlns="http://www.w3.org/2000/svg">
<path d="M0.663352 728V0.727251H287.595C342.756 0.727251 389.75 11.2623 428.575 32.3324C467.401 53.1657 496.994 82.1666 517.354 119.335C537.95 156.267 548.249 198.881 548.249 247.176C548.249 295.472 537.832 338.085 516.999 375.017C496.165 411.949 465.981 440.713 426.445 461.31C387.145 481.906 339.56 492.205 283.689 492.205H100.805V368.98H258.831C288.424 368.98 312.808 363.89 331.984 353.71C351.397 343.294 365.839 328.971 375.308 310.741C385.015 292.276 389.868 271.087 389.868 247.176C389.868 223.028 385.015 201.958 375.308 183.966C365.839 165.737 351.397 151.651 331.984 141.707C312.571 131.527 287.95 126.438 258.121 126.438H154.428V728H0.663352ZM842.638 0.727251H994.626V507.83C994.626 554.705 984.091 595.424 963.021 629.989C942.188 664.553 913.187 691.187 876.018 709.889C838.85 728.592 795.644 737.943 746.402 737.943C702.605 737.943 662.832 730.249 627.084 714.861C591.572 699.236 563.4 675.562 542.567 643.838C521.733 611.878 511.435 571.75 511.672 523.455H664.726C665.199 542.631 669.106 559.084 676.445 572.815C684.02 586.31 694.319 596.726 707.339 604.065C720.597 611.168 736.222 614.719 754.214 614.719C773.154 614.719 789.134 610.694 802.155 602.645C815.412 594.359 825.474 582.285 832.339 566.423C839.205 550.562 842.638 531.03 842.638 507.83V0.727251Z" fill="white"/>
</svg>
